# xmcd CD database file
#
# Track frame offsets:
#	150
#	30365
#	52322
#	64817
#	88097
#	111574
#	121101
#	143528
#	162880
#	183312
#	196110
#	212967
#	227657
#	252964
#	269171
#	306996
#
# Disc length: 4413 seconds
#
# Revision: 1
# Processed by: cddbd v1.4PL0 Copyright (c) Steve Scherf et al.
# Submitted via: jetAudio 5
#
DISCID=eb113b10
DTITLE=various aArtist - Lining blues
DYEAR=1900
DGENRE=
TTITLE0=One night blues
TTITLE1=Hell's session
TTITLE2=Big road blues
TTITLE3=One night boy
TTITLE4=Wang dang doodle
TTITLE5=Whiskey and Gin
TTITLE6=Go-go train
TTITLE7=L.B.Boogi
TTITLE8=Dizzy busy bluesman
TTITLE9=I'm walking
TTITLE10=Ram Jam Josey
TTITLE11=Gamble on
TTITLE12=Shylina
TTITLE13=BAS-29
TTITLE14=Blue breeze
TTITLE15=That night
EXTD=Star profile
EXTT0=
EXTT1=
EXTT2=
EXTT3=
EXTT4=
EXTT5=
EXTT6=
EXTT7=
EXTT8=
EXTT9=
EXTT10=
EXTT11=
EXTT12=
EXTT13=
EXTT14=
EXTT15=
PLAYORDER=
